<?xml version="1.0" encoding="utf-8"?>
<!-- Generator: Adobe Illustrator 25.2.3, SVG Export Plug-In . SVG Version: 6.00 Build 0)  -->
<svg version="1.1" id="Calque_1" xmlns="http://www.w3.org/2000/svg" xmlns:xlink="http://www.w3.org/1999/xlink" x="0px" y="0px"
	 viewBox="0 0 200 200" style="enable-background:new 0 0 200 200;" xml:space="preserve">
<style type="text/css">
	.st0{opacity:0.4;fill:#808181;}
	.st1{fill:#FFFFFF;}
	.st2{opacity:0.7;}
	.st3{fill:#A7A6A6;}
	.st4{fill:#FCD7B0;}
	.st5{fill:#F6CEA6;}
	.st6{fill:#FDD8AE;}
	.st7{fill:#FEE1BA;}
	.st8{fill:#594B4A;}
	.st9{fill:#EF771C;}
	.st10{fill:#DB5213;}
	.st11{fill:#CD5625;}
	.st12{fill:#E7E6E6;}
	.st13{fill:#F0F0F0;}
	.st14{fill:#066579;}
	.st15{fill:#FFF0B4;}
	.st16{fill:#028DA1;}
</style>
<g>
	<path class="st0" d="M100.1,13.6c-47.1,0-85.4,38.2-85.4,85.4c0,47.1,38.2,85.4,85.4,85.4c47.1,0,85.4-38.2,85.4-85.4
		C185.4,51.9,147.2,13.6,100.1,13.6z"/>
	<path class="st1" d="M100.1,9.7C50.8,9.7,10.7,49.7,10.7,99c0,49.3,40.1,89.3,89.3,89.3c49.3,0,89.3-40.1,89.3-89.3
		C189.4,49.7,149.3,9.7,100.1,9.7z M100.1,180.4c-44.9,0-81.4-36.5-81.4-81.4c0-44.9,36.5-81.4,81.4-81.4s81.4,36.5,81.4,81.4
		C181.5,143.9,144.9,180.4,100.1,180.4z"/>
</g>
<g>
	<g class="st2">
		<path class="st3" d="M164.9,106.6c0.1-0.1,0.2-0.1,0.3-0.2C165.1,106.4,165,106.5,164.9,106.6z"/>
		<path class="st3" d="M165.2,106.4C165.2,106.4,165.2,106.3,165.2,106.4C165.2,106.4,165.2,106.4,165.2,106.4z"/>
		<path class="st3" d="M156.8,142.1h-0.9V142l-2.8-4.6l-2.7-2.5l-1.7-3.6h9.8l-3.2-10.2c-0.3-1-1-1.9-1.9-2.4l-12.5-6.9
			c-0.1-0.7-0.3-1.5-0.4-2.5h0c0,0,0.1-0.1,0.1-0.1c0,0,0,0,0.1-0.1c0.3-0.2,0.6-0.5,0.9-0.8c0,0,0.1-0.1,0.1-0.1
			c0.3-0.3,0.5-0.6,0.8-0.9c0,0,0.1-0.1,0.1-0.2c0.2-0.3,0.5-0.6,0.7-0.9c0-0.1,0.1-0.2,0.1-0.2c0.2-0.3,0.4-0.7,0.6-1
			c0.1-0.1,0.1-0.2,0.2-0.3c0.2-0.3,0.3-0.7,0.5-1c0-0.1,0-0.1,0.1-0.2c0.8-0.5,1.8-1.2,2.8-2.1c5.8,14.7,15.7,6.7,17.5,5.1
			c-1.5,1.1-5.5,0.2-5.5-5c0-5.6,3.1-6.8,3.1-12.8c0-15.7-13.1-14.7-14.6-10.6c-4.5-5.7-11.5-6.3-12.9-4.6c-1.4-1.6-8.5-1-13,4.7v0
			c-0.4-1.3-2.1-2.3-4.1-2.6c-0.1-0.6-0.2-1.2-0.5-1.6c2.1-7.3,1.3-18.4-9.1-22.7c0.3-0.5,0.4-1.1,0.4-1.7c0-3.4-4.6-6.2-10.2-6.2
			c-5.6,0-10.2,2.8-10.2,6.2c0,0.8,0.2,1.5,0.7,2.2c-9,4.9-9.7,16.9-9.1,21.8c0,0.2,0.1,0.5,0.1,0.7c-0.7,1.7-0.5,4.9,0.4,9.6
			c1,5.5,3.1,4.1,3.5,3.7c1.4,5.6,3.9,9.8,7.1,12.2h0c-0.1,1.4-0.3,2.5-0.5,3.5l-1.4,0.7l-3.1,5.1l-10.4,6.3l-6.7-4.6v-4.3
			c0.6-0.8,1.2-1.6,1.7-2.6c0,0,0,0,0,0c0.2-0.4,0.4-0.9,0.6-1.3c0-0.1,0-0.1,0.1-0.2c0.2-0.4,0.3-0.8,0.5-1.3
			c0-0.1,0.1-0.2,0.1-0.4c0.1-0.4,0.3-0.8,0.4-1.2c0-0.2,0.1-0.4,0.1-0.6c0-0.1,0-0.2,0-0.2l0,0.5c0,0,1.8,1.9,2.6-2.6
			c0.7-3.9,0.9-6.3,0-7.4c2.1-9.5-1.1-18.7-13.5-18.7c-10.7,0-15,8.9-13,18.4c-1.1,1-1,3.5-0.2,7.7c0.8,4,2.2,3,2.6,2.7
			c0.8,3.1,2,5.7,3.6,7.5v1.8v2.3l-11.4,7.8c-0.8,0.5-1.3,1.3-1.6,2.2l-3.3,10.4h10.1l-1.7,3.6l-2.7,2.5l-2.8,4.6v0.1h-0.9
			c-1.5,0-2.8,1.3-2.8,2.8v1.4h52.6v1.6c0,1.5,1.9,2.7,4.2,2.7h8.4c2.3,0,4.2-1.2,4.2-2.7v-1.6h52.6v-1.4
			C159.6,143.4,158.3,142.1,156.8,142.1z M122.5,101.4L122.5,101.4c1,0.9,1.9,1.6,2.8,2.1c1,2.5,2.5,4.5,4.2,5.8h0
			c-0.1,1-0.2,1.8-0.4,2.5l-6.8,3.8l-8.9-5.4C116.4,110.1,119.9,108.1,122.5,101.4z M108.9,97.2C109,97.2,109,97.2,108.9,97.2
			c0.2-0.2,0.3-0.4,0.5-0.7c0.6,1.4,1,2.9,1,5c0,1.8-0.5,3.1-1.2,4l-1-1.6l-1.4-0.7l0.1,0.4c-0.2-1-0.5-2.3-0.6-3.9h0
			C107.3,99.1,108.1,98.2,108.9,97.2z M92.8,144.2C92.8,144.3,92.8,144.3,92.8,144.2C92.8,144.3,92.8,144.3,92.8,144.2L92.8,144.2z
			 M104.4,144.2L104.4,144.2C104.4,144.3,104.4,144.3,104.4,144.2C104.4,144.3,104.4,144.3,104.4,144.2z M90.6,103.5L90.6,103.5
			C90.6,103.4,90.6,103.4,90.6,103.5z"/>
	</g>
	<g>
		<g>
			<path class="st4" d="M47.9,99.2c0,0-1.8,1.9-2.6-2.6c-0.9-4.8-0.9-7.4,0.8-8c1.1-0.4,1.4,0.5,1.4,0.5L47.9,99.2z"/>
			<path class="st4" d="M51.5,106v5.6c0,1.4,0.7,2.7,1.9,3.5c2.1,1.4,5.1,3.4,5.2,3.4c0.1,0,3.2-2,5.3-3.4c1.2-0.8,1.9-2.1,1.9-3.5
				v-5.9L51.5,106z"/>
			<path class="st5" d="M51.5,108.5c1.9,2.1,4.3,3.3,7,3.3c2.8,0,5.3-1.3,7.3-3.6v-2.5L51.5,106V108.5z"/>
			<path class="st6" d="M58.5,110.1c6.5,0,11.5-6.8,11.5-18.1c0-14.1-4.1-17.4-11.5-17.4c-7.4,0-11.5,3.3-11.5,17.4
				C47,103.2,52,110.1,58.5,110.1z"/>
			<path class="st4" d="M69.3,99.2c0,0,1.8,1.9,2.6-2.6c0.9-4.8,0.9-7.4-0.8-8c-1.1-0.4-1.4,0.5-1.4,0.5L69.3,99.2z"/>
			<path class="st7" d="M58.7,74.5v35.5C65.1,110,70,103.1,70,91.9C70,77.9,66,74.6,58.7,74.5z"/>
			<path class="st8" d="M58.5,70.4C46,70.4,42.2,82.5,47,93.6h1.4c0,0-1.1-8.6,3.4-13.7c0,0-1.6,7.8,6.9,7.8c0,0-5.3-5-2.4-7.9
				c0,0,1.7,7.1,9.5,7.1c0,0-2.6-2.2-1.6-6.4c0,0,5.3,8,5.2,13.1h1.3C74.9,82.7,72.8,70.4,58.5,70.4z"/>
			<path class="st9" d="M78.7,120.8c-0.3-0.9-0.8-1.6-1.6-2.2l-11.4-7.8c0,0-1.6,5.6-7.1,5.6c-5.5,0-7.1-5.6-7.1-5.6l-11.4,7.8
				c-0.8,0.5-1.3,1.3-1.6,2.2l-3.3,10.4h22.7h0.7H82L78.7,120.8z"/>
		</g>
		<g>
			<path class="st8" d="M131.7,73.5c2.2-2.6,18.4,0.3,16.7,20.1c-0.7,7.7-9.3,11.2-9.3,11.2h-7.3V73.5z"/>
			<path class="st8" d="M144.6,78.2c1.4-4.2,14.6-5.3,14.6,10.5c0,6-3.1,7.2-3.1,12.8c0,5.6,4.7,6.2,5.8,4.8c0,0-11.4,11.4-17.8-4.9
				L144.6,78.2z"/>
			<path class="st8" d="M118.8,78.2c-1.4-4.2-14.6-5.3-14.6,10.5c0,6,3.1,7.2,3.1,12.8c0,5.6-4.7,6.2-5.8,4.8
				c0,0,11.4,11.4,17.8-4.9L118.8,78.2z"/>
			<path class="st4" d="M131.7,120.3l7-5.5c0,0-1-1.3-1.4-5.5h-5.5l0,0h-5.5c-0.4,4.2-1.4,5.5-1.4,5.5L131.7,120.3L131.7,120.3
				L131.7,120.3L131.7,120.3L131.7,120.3z"/>
			<path class="st5" d="M137.3,109.3h-5.5l0,0h-5.5c0,0.4-0.1,0.8-0.2,1.2c1.7,1.3,3.6,2,5.7,2c2.1,0,4-0.7,5.7-2
				C137.4,110.1,137.3,109.7,137.3,109.3z"/>
			<path class="st8" d="M131.8,73.5c-2.2-2.6-18.4,0.3-16.7,20.1c0.7,7.7,9.3,11.2,9.3,11.2h7.3V73.5z"/>
			<path class="st6" d="M131.7,111.2c6.5,0,11.5-6.8,11.5-18.1c0-14.1-4.1-17.4-11.5-17.4c-7.4,0-11.5,3.3-11.5,17.4
				C120.2,104.4,125.2,111.2,131.7,111.2z"/>
			<path class="st7" d="M131.9,75.7v35.5c6.4-0.1,11.4-6.9,11.4-18.1C143.2,79,139.2,75.7,131.9,75.7z"/>
			<path class="st4" d="M121.1,100.3c0,0-1.8,1.9-2.6-2.6c-0.9-4.8-0.9-7.5,0.8-8c1.1-0.4,1.4,0.6,1.4,0.6L121.1,100.3z"/>
			<path class="st4" d="M142.5,100.3c0,0,1.8,1.9,2.6-2.6c0.9-4.8,0.9-7.5-0.8-8c-1.1-0.4-1.4,0.6-1.4,0.6L142.5,100.3z"/>
			<path class="st8" d="M131.7,82.2c-3.2,0-6.5-2.5-8.1-1.7c-1.6,0.8-3.3,2.2-2.9,13.9c0,0-7.4-9.6,1.9-16.7
				c2.5-1.9,7.8-3.3,9.2-3.2l0,0L131.7,82.2z"/>
			<path class="st8" d="M131.8,82.2c3.2,0,6.5-2.5,8.1-1.7c1.6,0.8,3.3,2.2,2.9,13.9c0,0,7.4-9.6-1.9-16.7c-2.5-1.9-7.8-3.3-9.2-3.2
				l0,0L131.8,82.2z"/>
			<path class="st10" d="M152.1,121c-0.3-1-1-1.9-1.9-2.4l-12.5-6.9c0,0-0.3,4.7-5.8,4.7c-5.5,0-6.1-4.7-6.1-4.7l-12.2,6.9
				c-0.9,0.5-1.6,1.4-1.9,2.4l-3.2,10.2h22.7h0.7h23.5L152.1,121z"/>
		</g>
		<g>
			<g>
				<path class="st4" d="M95.5,115l9.6-7.6c0,0-1.4-1.8-2-7.6h-7.6l0,0h-7.6c-0.6,5.7-2,7.6-2,7.6L95.5,115L95.5,115L95.5,115
					L95.5,115L95.5,115z"/>
				<path class="st5" d="M103.1,99.8h-7.6l0,0h-7.6c-0.1,0.6-0.1,1.1-0.2,1.6c2.3,1.8,4.9,2.8,7.8,2.8c2.9,0,5.5-1,7.8-2.8
					C103.2,100.9,103.2,100.4,103.1,99.8z"/>
				<path class="st4" d="M80.9,87.5c0,0-2.4,2.6-3.6-3.6c-1.3-6.6-1.2-10.2,1-11c1.5-0.5,1.9,0.8,1.9,0.8L80.9,87.5z"/>
				<path class="st6" d="M95.5,102.4c8.9,0,15.8-9.4,15.8-24.9c0-19.3-5.7-23.8-15.8-23.8c-10.1,0-15.8,4.5-15.8,23.8
					C79.7,93,86.6,102.4,95.5,102.4z"/>
				<path class="st4" d="M110.3,87.5c0,0,2.4,2.6,3.6-3.6c1.3-6.6,1.2-10.2-1-11c-1.5-0.5-1.9,0.8-1.9,0.8L110.3,87.5z"/>
				<path class="st7" d="M95.7,53.7v48.7c8.8-0.1,15.6-9.5,15.6-24.9C111.3,58.3,105.7,53.7,95.7,53.7z"/>
			</g>
			<path class="st11" d="M95.4,49.6c-18,0-19.4,17.7-18.6,24c0.4,3.2,2.9,6.3,2.9,6.3s0.7-8.6,6.2-11.1c5.6-2.5,13.7-1.1,17.7-7.1
				c4.6,7.1,6.7,10,7.6,18.2C116.4,74.5,120.5,49.8,95.4,49.6z"/>
			<path class="st11" d="M105.5,49.6c0,3.4-4.6,6.2-10.2,6.2c-5.6,0-10.2-2.8-10.2-6.2c0-3.4,4.6-6.2,10.2-6.2
				C101,43.4,105.5,46.2,105.5,49.6z"/>
			<polygon class="st12" points="95.5,110.8 82.8,109.1 95.5,131.2 108.2,109.1 			"/>
			<polygon class="st13" points="87.4,103.3 86,104 82.8,109.1 92.2,121.2 95.5,110.8 87.2,104.2 			"/>
			<polygon class="st13" points="103.6,103.3 105.1,104 108.2,109.1 98.8,121.2 95.5,110.8 103.8,104.2 			"/>
			<path class="st14" d="M82.8,109.1l-11,6.7c-1.3,0.8-2.2,2-2.6,3.5l-2.9,12h29.2L82.8,109.1z"/>
			<path class="st14" d="M108.2,109.1l11,6.7c1.3,0.8,2.2,2,2.6,3.5l2.9,12H95.5L108.2,109.1z"/>
		</g>
		<rect x="66.3" y="131.2" class="st14" width="58.3" height="8.4"/>
		<g>
			<g>
				<path class="st15" d="M50.3,124.5c16.6,0,41.2-4.1,45,10.4v9.4H38.1V142l2.8-4.6l2.7-2.5l2-4.3c0,0,20.8-3.5,34.1-2.5
					c0,0-10.9-1.6-30.8-1.6L50.3,124.5z"/>
				<path class="st15" d="M102,146.3c0,2.4-3,4.3-6.7,4.3c-3.7,0-6.7-1.9-6.7-4.3c0-2.4,3-4.3,6.7-4.3C99,142,102,143.9,102,146.3z"
					/>
				<path class="st16" d="M89.6,146.3H34.3v-1.4c0-1.6,1.3-2.8,2.8-2.8h49.7c1.5,0,2.8,1.3,2.8,2.8V146.3z"/>
				<path class="st16" d="M103.8,147.9c0,1.5-1.9,2.7-4.2,2.7h-8.4c-2.3,0-4.2-1.2-4.2-2.7v-1.6h16.8V147.9z"/>
				<path class="st15" d="M140.4,124.5c-16.6,0-41.2-4.1-45,10.4v9.4h57.3V142l-2.8-4.6l-2.7-2.5l-2-4.3c0,0-20.8-3.5-34.1-2.5
					c0,0,10.9-1.6,30.8-1.6L140.4,124.5z"/>
				<path class="st16" d="M101.1,146.3h55.3v-1.4c0-1.6-1.3-2.8-2.8-2.8h-49.7c-1.5,0-2.8,1.3-2.8,2.8V146.3z"/>
			</g>
			<path class="st15" d="M101.1,146.5c0,1.2-2.6,2.1-5.7,2.1c-3.2,0-5.7-0.9-5.7-2.1c0-1.2,2.6-2.1,5.7-2.1
				C98.5,144.4,101.1,145.3,101.1,146.5z"/>
		</g>
	</g>
</g>
</svg>
