<?xml version="1.0" encoding="utf-8"?>
<!-- Generator: Adobe Illustrator 25.2.3, SVG Export Plug-In . SVG Version: 6.00 Build 0)  -->
<svg version="1.1" id="Calque_1" xmlns="http://www.w3.org/2000/svg" xmlns:xlink="http://www.w3.org/1999/xlink" x="0px" y="0px"
	 viewBox="0 0 200 200" style="enable-background:new 0 0 200 200;" xml:space="preserve">
<style type="text/css">
	.st0{opacity:0.4;fill:#808181;}
	.st1{fill:#FFFFFF;}
	.st2{fill:#783410;}
	.st3{fill:#066579;}
	.st4{fill:#07788C;}
	.st5{opacity:0.2;fill:#066579;}
	.st6{fill:#028DA1;}
	.st7{opacity:0.2;fill:#028DA1;}
	.st8{fill:#E95210;}
	.st9{fill:#F4951B;}
	.st10{opacity:0.3;fill:#E95210;}
	.st11{opacity:0.2;fill:#F4951B;}
	.st12{fill:#435622;}
	.st13{opacity:0.2;fill:#435622;}
	.st14{fill:#A01915;}
	.st15{opacity:0.2;fill:#A01915;}
</style>
<g>
	<path class="st0" d="M100.1,13.6c-47.1,0-85.4,38.2-85.4,85.4c0,47.1,38.2,85.4,85.4,85.4c47.1,0,85.4-38.2,85.4-85.4
		C185.4,51.9,147.2,13.6,100.1,13.6z"/>
</g>
<g>
	<path class="st0" d="M100.1,13.6C54,13.6,16.6,51,16.6,97c0,46.1,37.4,83.4,83.4,83.4c46.1,0,83.4-37.4,83.4-83.4
		C183.5,51,146.1,13.6,100.1,13.6z"/>
	<path class="st1" d="M100.1,9.7C51.9,9.7,12.7,48.9,12.7,97c0,48.1,39.2,87.3,87.3,87.3c48.1,0,87.3-39.2,87.3-87.3
		C187.4,48.9,148.2,9.7,100.1,9.7z M100.1,176.6c-43.9,0-79.6-35.7-79.6-79.6c0-43.9,35.7-79.6,79.6-79.6
		c43.9,0,79.6,35.7,79.6,79.6C179.6,140.9,143.9,176.6,100.1,176.6z"/>
</g>
<g>
	<rect x="39.1" y="134.5" class="st2" width="121.9" height="8.8"/>
	<g>
		<rect x="58.4" y="57.2" class="st3" width="18.3" height="77.3"/>
		<rect x="58.4" y="59.9" class="st4" width="18.3" height="3.2"/>
		<rect x="58.4" y="127.8" class="st4" width="18.3" height="3.2"/>
		<rect x="67.5" y="57.2" class="st5" width="9.1" height="77.3"/>
	</g>
	<g>
		<rect x="77.6" y="62.1" class="st6" width="14.5" height="72.4"/>
		<rect x="84.8" y="62.1" class="st7" width="7.3" height="72.4"/>
		<rect x="81.7" y="72.5" class="st7" width="6.3" height="33.3"/>
		<rect x="77.6" y="115.3" class="st3" width="14.5" height="9.6"/>
	</g>
	<g>
		<rect x="42.9" y="74.3" class="st8" width="14.7" height="60.2"/>
		<rect x="42.9" y="79.8" class="st9" width="14.7" height="4.2"/>
		<rect x="42.9" y="87.6" class="st9" width="14.7" height="4.2"/>
		<rect x="47.6" y="102.1" class="st9" width="5.2" height="24.1"/>
		<rect x="50.2" y="74.3" class="st10" width="7.3" height="60.2"/>
	</g>
	<g>
		<polygon class="st9" points="103.2,134.5 94.1,133.1 105.6,56.7 114.7,58 		"/>
		<polygon class="st11" points="103.2,134.5 98.7,133.8 110.2,57.3 114.7,58 		"/>
		<polygon class="st8" points="110.8,83.8 101.7,82.5 103.5,71 112.6,72.4 		"/>
	</g>
	<g>
		<rect x="113.7" y="66.5" class="st12" width="16.8" height="68"/>
		<rect x="122.1" y="66.5" class="st13" width="8.4" height="68"/>
		<rect x="113.7" y="105.9" class="st13" width="16.8" height="6.7"/>
		<rect x="113.7" y="116.8" class="st13" width="16.8" height="6.7"/>
		<rect x="113.7" y="70.1" class="st13" width="16.8" height="4.9"/>
	</g>
	<g>
		<rect x="131.1" y="81.9" class="st14" width="16" height="52.6"/>
		<rect x="139.1" y="81.9" class="st15" width="8" height="52.6"/>
		<rect x="134.9" y="81.9" class="st15" width="8.2" height="18.6"/>
	</g>
</g>
</svg>
